<?xml version="1.0" encoding="UTF-8"?>
<svg version="1.1" xmlns="http://www.w3.org/2000/svg" width="2629" height="630">
<path d="M0 0 C14.38789021 -0.09407209 28.7757317 -0.16401618 43.16386795 -0.20724869 C49.84682649 -0.22774197 56.52955331 -0.25611934 63.21240234 -0.30175781 C69.67691815 -0.34562261 76.14123507 -0.36922196 82.60588837 -0.37950897 C85.05671056 -0.38682807 87.50752344 -0.40111743 89.95825958 -0.42292023 C120.46918484 -0.6832509 146.52303759 4.44180802 169.21484375 26.25 C178.70140111 35.6168112 186.01509983 45.56440246 190.91845703 58.03149414 C191.17357119 58.67962853 191.42868534 59.32776293 191.69153023 59.99553776 C194.32531309 66.73771334 196.76966613 73.54615594 199.1796875 80.37109375 C199.64167673 81.67254226 200.10393215 82.9738963 200.56643677 84.27516174 C201.76251872 87.64255518 202.95506783 91.01118839 204.14678955 94.38012695 C205.37169634 97.84078892 206.60007269 101.30021891 207.828125 104.75976562 C210.22207521 111.50533394 212.6122814 118.25222309 215 125 C222.32506486 112.01730166 229.24377762 98.8702499 235.97900391 85.57373047 C245.87369897 66.06367369 255.3140133 48.0847867 276.421875 39.04296875 C286.5106352 36.10224935 296.74782547 35.69998834 307.19140625 35.734375 C309.15206276 35.73150482 309.15206276 35.73150482 311.15232849 35.72857666 C313.89611639 35.72565687 316.63977255 35.72982074 319.38354492 35.73925781 C322.86505125 35.7506619 326.34624935 35.74406676 329.82774448 35.73211288 C333.19898848 35.72306791 336.57015356 35.72943625 339.94140625 35.734375 C341.17298965 35.73032654 342.40457306 35.72627808 343.67347717 35.72210693 C362.22966324 35.8213807 376.93865522 40.16191534 390.92578125 52.73046875 C396.35492935 58.38427126 399.826067 65.43420156 403.52001953 72.27294922 C405.24571757 75.45276563 406.99417721 78.61974387 408.74609375 81.78515625 C409.42580421 83.01374055 410.10549134 84.24233776 410.78515625 85.47094727 C411.12901367 86.09252716 411.47287109 86.71410706 411.82714844 87.35452271 C416.04723849 94.98831853 420.25239516 102.63035831 424.44140625 110.28125 C424.95268066 111.21420898 425.46395508 112.14716797 425.99072266 113.10839844 C426.93337565 114.82954346 427.87453189 116.55150936 428.81396484 118.27441406 C430.59922047 121.85528966 430.59922047 121.85528966 433 125 C433.24532471 124.2484816 433.49064941 123.4969632 433.7434082 122.72267151 C436.08455651 115.55756713 438.43641869 108.39610434 440.79968262 101.23826694 C442.01360316 97.56034386 443.22367986 93.88125769 444.42431641 90.19897461 C455.19505383 57.18585112 467.22161154 26.6430913 499.98291016 9.9921875 C514.64351114 2.84993356 528.90806745 -0.17099706 545.18945312 -0.11352539 C546.8298053 -0.11374443 546.8298053 -0.11374443 548.5032959 -0.1139679 C552.09596787 -0.11327462 555.68858715 -0.1055097 559.28125 -0.09765625 C561.7808835 -0.09578999 564.28051737 -0.09436707 566.78015137 -0.09336853 C572.67311095 -0.08994844 578.56605126 -0.08207746 584.45900297 -0.07201904 C591.83204031 -0.05970964 599.20508001 -0.05436646 606.578125 -0.04882812 C619.71875949 -0.03811969 632.85937856 -0.02125659 646 0 C644.11746096 6.37807058 642.14376107 12.71470777 640.03588867 19.02172852 C639.755578 19.86441284 639.47526733 20.70709717 639.1864624 21.57531738 C638.26513169 24.34368265 637.3416255 27.11131626 636.41796875 29.87890625 C635.76068058 31.85144703 635.10348134 33.82401745 634.44636536 35.7966156 C633.06458438 39.94343106 631.6817237 44.08988445 630.2980957 48.23608398 C628.56954278 53.41616099 626.8436202 58.59710952 625.11849785 63.77832985 C617.76256181 85.86712162 610.34181495 107.93176741 602.79814148 129.95716858 C598.4837462 142.55718632 594.24186539 155.17955663 590.05322266 167.82202148 C584.17631041 185.55492986 578.233138 203.26286788 572.16500854 220.93121338 C567.43081256 234.72210965 562.81210211 248.54958083 558.22012329 262.38842773 C552.47307811 279.69758909 546.71057475 297.00210965 540.76193237 314.2432251 C540.14086278 316.04656478 539.52299369 317.85101071 538.90872192 319.65667725 C529.26141721 347.97665122 515.19714635 369.55995848 488.0625 383.8125 C467.61840231 393.65764649 440.69528328 396.08839221 418.99023438 388.73632812 C408.00357926 384.67158919 398.06240194 379.49253704 389 372 C388.15050781 371.31292969 387.30101562 370.62585938 386.42578125 369.91796875 C369.04607943 355.14655296 361.05978907 334.40967474 352.90625 313.75390625 C352.06647436 311.6451186 351.22592505 309.5366389 350.38464355 307.42845154 C348.19384553 301.93254801 346.01344264 296.43258051 343.83532715 290.93164062 C341.60232506 285.29759203 339.35931136 279.66753258 337.1171875 274.03710938 C332.73509548 263.02857718 328.36399695 252.01571679 324 241 C320.83277605 248.4674094 317.83030646 255.96431528 315.06640625 263.58984375 C314.33456929 265.59383695 313.60271645 267.59782435 312.87084961 269.60180664 C312.49427216 270.6359671 312.1176947 271.67012756 311.72970581 272.73562622 C309.73790125 278.19953561 307.73127277 283.65800301 305.7265625 289.1171875 C303.46034108 295.29047348 301.1947362 301.46395311 298.94042969 307.64160156 C297.40325391 311.85118631 295.8524896 316.05551548 294.29098511 320.25613403 C293.73395411 321.76139444 293.18158917 323.26839217 292.634552 324.77731323 C287.85743273 337.94176686 282.15317966 352.01662962 272 362 C271.48856445 362.52432617 270.97712891 363.04865234 270.45019531 363.58886719 C268.98363997 365.07746218 267.49427979 366.53934676 266 368 C264.90945313 369.12148438 264.90945313 369.12148438 263.796875 370.265625 C246.59529219 386.94196864 223.01182927 392.46800875 199.82714844 392.43164062 C175.11595537 392.03213763 154.60703759 381.88453318 136.75 365.1875 C122.39355518 350.07545282 115.93795833 330.70388639 109.25 311.4375 C108.51312458 309.33371985 107.77547507 307.2302107 107.03710938 305.12695312 C105.4811311 300.69129295 103.92935195 296.25419683 102.38085938 291.81591797 C100.01994323 285.05184234 97.6448784 278.29280068 95.265625 271.53515625 C94.87364929 270.42184433 94.48167358 269.30853241 94.07781982 268.16148376 C93.28389834 265.90672273 92.48993263 263.65197726 91.69592285 261.39724731 C90.49269548 257.97925012 89.29060146 254.56085639 88.08886719 251.14233398 C82.56927931 235.44242651 77.02256126 219.75230093 71.46002197 204.06756592 C65.73734771 187.92972509 60.05079478 171.77938189 54.375 155.625 C48.52326884 138.9700503 42.63202771 122.33034698 36.67538452 105.71264648 C30.10331514 87.36997855 23.6596805 68.98241781 17.22680664 50.59057617 C16.42602498 48.30254327 15.62516317 46.01453843 14.82421875 43.7265625 C14.43502762 42.6138649 14.04583649 41.5011673 13.64485168 40.35475159 C11.5110335 34.26633425 9.35474469 28.18664475 7.17041016 22.11621094 C6.93716569 21.46713713 6.70392122 20.81806332 6.46360874 20.1493206 C5.33406301 17.00660882 4.2011679 13.86522564 3.06266785 10.72573853 C2.66147232 9.61145477 2.26027679 8.49717102 1.84692383 7.34912109 C1.48963699 6.36237396 1.13235016 5.37562683 0.76423645 4.35897827 C0 2 0 2 0 0 Z " fill="#155A9E" transform="translate(0,134)"/>
<path d="M0 0 C53.78324468 0 53.78324468 0 66.1875 6.625 C66.85330078 6.97199951 67.51910156 7.31899902 68.20507812 7.67651367 C83.08951247 15.70901278 93.65641571 28.13301148 99.07330322 44.17944336 C102.50960661 56.40039968 102.60454721 68.24479611 102.609375 80.875 C102.62438676 83.13900924 102.64112008 85.40300766 102.65948486 87.66699219 C102.70283422 93.57198644 102.72308504 99.47683305 102.73822021 105.38195801 C102.75790912 111.42920547 102.79986523 117.47629617 102.83984375 123.5234375 C102.91479411 135.34890959 102.96529761 147.174346 103 159 C103.6790036 158.58726837 104.3580072 158.17453674 105.05758667 157.7492981 C105.95236725 157.20828461 106.84714783 156.66727112 107.76904297 156.10986328 C108.65429657 155.57338165 109.53955017 155.03690002 110.45162964 154.48416138 C142.98370249 135.5376037 187.13770588 138.38020433 222.19482422 147.25390625 C270.14049682 160.0060364 311.80942647 190.49312584 337.2109375 233.30859375 C363.97174519 280.00130154 369.56842517 334.17902135 356 386 C346.56915238 418.38566614 330.15253175 445.66194705 307 470 C306.3090625 470.75539063 305.618125 471.51078125 304.90625 472.2890625 C294.38005625 483.42253666 281.27905346 492.46715513 268 500 C267.4313623 500.32806641 266.86272461 500.65613281 266.27685547 500.99414062 C245.43217129 512.95111329 221.92466182 520.47297811 198 523 C196.98808594 523.10957031 195.97617188 523.21914063 194.93359375 523.33203125 C167.65972886 525.84189612 140.27751174 523.21101554 115.26538086 511.59130859 C110.97846948 509.63284025 107.82866849 508.54779136 103 509 C102.86722656 509.56589844 102.73445313 510.13179687 102.59765625 510.71484375 C102.42105469 511.44832031 102.24445313 512.18179688 102.0625 512.9375 C101.88847656 513.66839844 101.71445313 514.39929688 101.53515625 515.15234375 C101 517 101 517 100 518 C67 518 34 518 0 518 C0 347.06 0 176.12 0 0 Z M108.54837036 260.31573486 C99.30442955 271.11004288 100.67395896 284.14151386 100.79107046 297.66673183 C100.81409768 301.1632392 100.79266059 304.65954956 100.77859497 308.15606689 C100.7622982 314.019966 100.78360117 319.88283925 100.82666016 325.74658203 C100.87572213 332.50544597 100.85969272 339.26186959 100.81022251 346.02067542 C100.7692654 351.85223887 100.76366919 357.68307168 100.78717053 363.5147326 C100.80112895 366.98552703 100.80327902 370.45517695 100.77334213 373.92589569 C100.74229898 377.79367179 100.78541733 381.6587518 100.83544922 385.52636719 C100.81723114 386.66112991 100.79901306 387.79589264 100.78024292 388.96504211 C100.92978043 395.22375046 101.83684855 398.52250482 106.28762817 403.0569458 C107.82304717 404.41244986 109.3938994 405.72903832 111 407 C111.79803984 407.63449444 112.59607967 408.26898888 113.41830254 408.92271042 C124.41863733 417.33529121 137.5525203 423.00817196 151 426 C151.99773437 426.22429687 152.99546875 426.44859375 154.0234375 426.6796875 C177.32480049 431.05243685 199.61248548 427.41414491 219.921875 415.1328125 C241.02113912 400.51327162 253.9164323 377.62518451 259.25 352.8125 C263.5863759 324.75114443 259.69913732 296.63945255 243 273.125 C241.68408266 271.40321543 240.35178493 269.69377036 239 268 C238.15308594 266.92298828 238.15308594 266.92298828 237.2890625 265.82421875 C222.71843416 248.209492 200.37305124 238.36324099 178 236 C151.21389651 234.29421828 128.01718995 241.92607944 108.54837036 260.31573486 Z " fill="#17589C" transform="translate(1056,11)"/>
<path d="M0 0 C1.37333496 0.29801514 1.37333496 0.29801514 2.77441406 0.60205078 C16.47677951 3.66000094 29.33241469 7.95049924 42 14 C43.01247803 14.48339844 43.01247803 14.48339844 44.04541016 14.9765625 C59.35797215 22.43021622 72.38184248 32.66001192 85 44 C85.67546875 44.60199219 86.3509375 45.20398438 87.046875 45.82421875 C119.77686342 76.76185066 133.52805484 122.56857242 135.08447266 166.37768555 C135.33917624 182.27967908 130.70693235 196.47558941 121 209 C120.18015625 210.06927734 120.18015625 210.06927734 119.34375 211.16015625 C108.9104849 223.9310633 93.3329308 230.83386895 77.22397041 232.78965652 C73.54148945 233.13794616 69.87573976 233.13402053 66.17944336 233.12025452 C64.90124725 233.12153615 64.90124725 233.12153615 63.597229 233.12284368 C60.76141206 233.12448182 57.92565518 233.11900455 55.08984375 233.11352539 C53.04928082 233.11324313 51.00871778 233.11340201 48.96815491 233.1139679 C43.44193645 233.11425436 37.91573977 233.10838192 32.38952637 233.10139394 C26.60929475 233.09513538 20.82906261 233.09455462 15.04882812 233.09336853 C4.10909744 233.0902626 -6.83062323 233.08205914 -17.7703495 233.07201904 C-30.22737043 233.060835 -42.68439185 233.05534168 -55.14141655 233.05032361 C-80.76094991 233.03987592 -106.3804744 233.02229075 -132 233 C-131.7098472 236.18047219 -131.40859326 239.3598025 -131.10546875 242.5390625 C-130.98359192 243.87723022 -130.98359192 243.87723022 -130.85925293 245.24243164 C-128.90445459 265.49618543 -120.30858325 283.18307004 -104.9375 296.6875 C-82.06820088 314.46766441 -51.36697674 318.72762137 -23.23828125 315.53515625 C-2.84458546 312.64675898 19.11249046 302.99215093 32 286.4296875 C37.55902219 279.67634414 46.46738663 275.40347207 55 274 C74.09846946 272.69840051 85.6683154 280.68563424 99.48193359 292.6953125 C102.31970377 295.13420665 105.26228831 297.43934058 108.1953125 299.76171875 C110.45238154 301.56297301 112.69440534 303.37898458 114.9296875 305.20703125 C115.6311792 305.78018066 116.3326709 306.35333008 117.05541992 306.94384766 C118.43975252 308.07597904 119.82280459 309.20967869 121.2043457 310.34521484 C125.35993851 313.73974981 129.60196551 316.92536889 134 320 C132.29572226 332.73602148 117.57526292 347.95726903 108.40625 356.62890625 C106.82307989 358.10926901 106.82307989 358.10926901 105.0625 360.5 C102.07005904 364.12720116 98.60594038 366.99413214 95 370 C94.50129395 370.42700195 94.00258789 370.85400391 93.48876953 371.29394531 C69.4149427 391.85088759 41.04272944 404.97454341 10.25 411.8125 C9.37714355 412.00739014 8.50428711 412.20228027 7.60498047 412.40307617 C-7.75483489 415.61164007 -22.98070493 416.37845611 -38.625 416.3125 C-39.54786804 416.31034485 -40.47073608 416.3081897 -41.42156982 416.30596924 C-55.45787546 416.25345111 -69.20990696 415.8549802 -83 413 C-83.96421875 412.80132324 -84.9284375 412.60264648 -85.921875 412.39794922 C-114.89133007 406.20015715 -142.88437527 394.80983954 -166 376 C-166.5583252 375.55301758 -167.11665039 375.10603516 -167.69189453 374.64550781 C-180.7560983 364.14120735 -192.11009872 352.5436601 -202 339 C-202.41459473 338.43506836 -202.82918945 337.87013672 -203.25634766 337.28808594 C-230.27377515 299.95841798 -243.20978022 253.63965577 -243.25 207.875 C-243.25067474 207.17779846 -243.25134949 206.48059692 -243.25204468 205.76226807 C-243.17621525 155.96005169 -227.80212644 104.21018119 -195 66 C-194.27683594 65.14921875 -193.55367187 64.2984375 -192.80859375 63.421875 C-190.592399 60.89141323 -188.31796843 58.43767572 -186 56 C-185.49098145 55.46375 -184.98196289 54.9275 -184.45751953 54.375 C-156.48752315 25.10654247 -121.49554248 7.96369646 -82 0 C-81.13455566 -0.17934082 -80.26911133 -0.35868164 -79.37744141 -0.54345703 C-54.40254139 -5.48932219 -24.86552214 -5.54171529 0 0 Z M-103.796875 111.80859375 C-111.29473903 119.73241052 -111.29473903 119.73241052 -114.4375 129.9375 C-114.24704759 134.26822219 -112.88954497 137.75505646 -110 141 C-104.5014871 145.81063146 -99.49476463 145.57023958 -92.3984375 145.51757812 C-91.23677063 145.5245874 -90.07510376 145.53159668 -88.87823486 145.53881836 C-85.0435791 145.55640359 -81.20966309 145.54477278 -77.375 145.53125 C-74.70751022 145.53394474 -72.04004278 145.53782105 -69.37255859 145.54284668 C-63.78409837 145.55011457 -58.19584991 145.54055816 -52.60742188 145.52148438 C-46.15547654 145.499717 -39.70403689 145.506769 -33.25210381 145.52879 C-27.70284651 145.5469687 -22.15374104 145.54949035 -16.60446358 145.53903532 C-13.2943772 145.53281381 -9.98457928 145.53350842 -6.67449951 145.54518127 C-2.98317296 145.55534188 0.7071832 145.53985045 4.3984375 145.51757812 C6.03507355 145.52972351 6.03507355 145.52972351 7.70477295 145.54211426 C13.79655596 145.4740347 17.36819687 145.07440953 22 141 C25.78667426 136.81472845 26.83078158 133.2172085 26.55859375 127.69921875 C24.2038065 116.32049156 12.8379681 106.29492416 3.79296875 99.640625 C-30.23034379 77.75380242 -75.35447424 83.24702092 -103.796875 111.80859375 Z " fill="#155698" transform="translate(877,120)"/>
<path d="M0 0 C7.56393531 -0.04676263 15.12785526 -0.08208873 22.69190311 -0.10362434 C26.20586897 -0.113971 29.71973446 -0.12795875 33.23364258 -0.15087891 C37.29248911 -0.17718164 41.35123364 -0.18654792 45.41015625 -0.1953125 C46.64516373 -0.20563507 47.8801712 -0.21595764 49.15260315 -0.22659302 C75.29606092 -0.22988378 99.52392529 7.01460655 119 25 C119.70253906 25.62261719 120.40507813 26.24523437 121.12890625 26.88671875 C130.69718268 35.81835839 137.23123915 47.74969096 143.5625 59.0625 C144.24999206 60.27966932 144.93816022 61.49645697 145.62695312 62.71289062 C147.04962529 65.22657734 148.46945128 67.74183812 149.88720703 70.25830078 C153.23104805 76.18765121 156.61824506 82.09222512 160 88 C161.33376816 90.33308494 162.66688329 92.66654278 164 95 C164.66665462 96.16667355 165.33332128 97.33334022 166 98.5 C172.66666667 110.16666667 179.33333333 121.83333333 186 133.5 C186.32994965 134.07740936 186.65989929 134.65481873 186.99984741 135.24972534 C187.66703147 136.41730253 188.33420675 137.58488473 189.00137329 138.75247192 C190.6600523 141.65524868 192.31891327 144.55792108 193.97802734 147.46044922 C197.07324529 152.87574682 200.16715729 158.29177203 203.25592041 163.71075439 C204.69820701 166.24092248 206.14131077 168.77062405 207.58447266 171.30029297 C208.58965924 173.06302514 209.59367908 174.82642247 210.59765625 176.58984375 C214.31794568 183.11001837 218.10428648 189.58299948 222 196 C226.02347483 191.44512283 228.66574863 186.33056208 231.5 181 C235.53382287 173.50764155 239.63042703 166.0626053 243.875 158.6875 C248.26682417 151.05264901 252.58858439 143.38201121 256.875 135.6875 C261.50674469 127.37807467 266.23709807 119.1358552 271.0625 110.9375 C276.32109565 101.99495781 281.3337089 92.94423403 286.23974609 83.80419922 C291.19967415 74.57906602 296.35700654 65.47838653 301.61083984 56.41796875 C302.94679133 54.09261488 304.25240773 51.7527448 305.55078125 49.40625 C318.277722 26.64819807 335.66190195 10.41920185 361.09228516 3.07763672 C371.96507218 0.1416781 382.47110169 -0.14191276 393.66015625 -0.09765625 C395.05976816 -0.09578737 396.45938073 -0.09436569 397.85899353 -0.09336853 C401.51347716 -0.08958036 405.16792 -0.0797824 408.8223877 -0.06866455 C412.56322681 -0.05837016 416.30407263 -0.05385384 420.04492188 -0.04882812 C427.36329969 -0.0381562 434.68164409 -0.02112515 442 0 C440.62300695 4.27793554 439.04611641 7.97006877 436.796875 11.8671875 C436.15363281 12.98738281 435.51039063 14.10757813 434.84765625 15.26171875 C434.14857408 16.46622512 433.44935174 17.67065013 432.75 18.875 C432.02432 20.13387281 431.29906559 21.39299103 430.57421875 22.65234375 C425.51478801 31.43125317 420.40510638 40.18112275 415.28759766 48.92626953 C410.85510048 56.50859986 406.47820282 64.12195654 402.125 71.75 C401.79211975 72.3332605 401.4592395 72.916521 401.11627197 73.51745605 C398.74261615 77.67741229 396.371073 81.83857123 394 86 C391.29310624 90.75082192 388.58529654 95.50111834 385.875 100.25 C385.37543793 101.12537415 385.37543793 101.12537415 384.86578369 102.01843262 C379.72647333 111.01978768 374.52288709 119.9821319 369.28637695 128.92724609 C364.48564601 137.13943329 359.75850731 145.39277179 355.046875 153.65625 C350.22207465 162.11820754 345.37431361 170.56642932 340.5 179 C335.307595 187.98540936 330.14333816 196.98645334 325 206 C316.76426888 220.43139362 308.45951043 234.82256384 300.14550781 249.20898438 C298.28397328 252.43068275 296.42301161 255.65271079 294.5625 258.875 C293.94697266 259.94105469 293.33144531 261.00710938 292.69726562 262.10546875 C287.74546958 270.68995597 282.83175132 279.29580293 277.92263794 287.90472412 C273.32605725 295.96263303 268.68667368 303.99412773 264 312 C258.99254896 320.55549411 254.03845141 329.14024245 249.125 337.75 C248.79211975 338.3332605 248.4592395 338.916521 248.11627197 339.51745605 C245.74261615 343.67741229 243.371073 347.83857123 241 352 C238.29310624 356.75082192 235.58529654 361.50111834 232.875 366.25 C232.54195862 366.83358276 232.20891724 367.41716553 231.86578369 368.01843262 C226.72940248 377.01465736 221.52918439 385.97213487 216.29516602 394.91186523 C212.10242325 402.08336467 207.96273856 409.2841947 203.84664917 416.49984741 C202.82174708 418.29629175 201.79589556 420.09219065 200.76977539 421.88793945 C197.76594106 427.14609801 194.7681881 432.40748099 191.7890625 437.6796875 C182.80749814 453.50420578 182.80749814 453.50420578 177 460 C176.50886719 460.59425781 176.01773438 461.18851563 175.51171875 461.80078125 C166.300409 472.10921971 151.42586868 478.13063985 138 480 C135.31554962 480.08588681 132.65857949 480.12680553 129.97509766 480.11352539 C129.19393585 480.11367142 128.41277405 480.11381744 127.60794067 480.1139679 C125.0432857 480.11327498 122.47870468 480.10551184 119.9140625 480.09765625 C118.12901855 480.09578986 116.34397409 480.094367 114.55892944 480.09336853 C109.87362235 480.08956075 105.18834654 480.07974538 100.50305176 480.06866455 C95.71688256 480.05841297 90.93070828 480.05386289 86.14453125 480.04882812 C76.76300713 480.03812149 67.38150617 480.02106604 58 480 C59.58463427 475.9322275 61.47004942 472.16569554 63.625 468.375 C64.20000244 467.35768799 64.20000244 467.35768799 64.78662109 466.31982422 C68.98199654 458.94861538 73.32818179 451.66631008 77.66464233 444.37756348 C82.6512517 435.99522009 87.57716322 427.58148032 92.4375 419.125 C97.76930835 409.8492206 103.14554511 400.60119822 108.5625 391.375 C108.92041626 390.76534393 109.27833252 390.15568787 109.64709473 389.52755737 C111.07346692 387.09804312 112.49985762 384.66853974 113.9263916 382.23912048 C117.35726505 376.3947059 120.77422183 370.54220682 124.1875 364.6875 C124.7556543 363.71304932 125.32380859 362.73859863 125.90917969 361.73461914 C127.60637817 358.82322993 129.30325336 355.91165256 131 353 C133.2704141 349.10392212 135.54121343 345.20806933 137.8125 341.3125 C138.37598145 340.34586426 138.93946289 339.37922852 139.52001953 338.38330078 C142.83293263 332.70362403 146.15469199 327.02923007 149.484375 321.359375 C149.86522751 320.71062912 150.24608002 320.06188324 150.63847351 319.39347839 C152.84741264 315.63087805 155.05680399 311.86855259 157.27244568 308.1098938 C158.25919685 306.42327766 159.22728429 304.72578591 160.19482422 303.02807617 C162 300 162 300 163.82470703 297.57543945 C165.45062468 295.30937074 166.4518327 293.738475 167 291 C165.70765502 286.52978397 163.29068043 282.92840919 160.75 279.0625 C160.04034925 277.9225669 159.33476443 276.78009356 158.63305664 275.63525391 C157.17142946 273.25762245 155.69289273 270.89188028 154.20166016 268.53271484 C150.77621603 263.07994033 147.62340637 257.4697521 144.4375 251.875 C143.18789044 249.70475375 141.93659395 247.53547792 140.68359375 245.3671875 C140.07112793 244.30725586 139.45866211 243.24732422 138.82763672 242.15527344 C135.89734669 237.09635434 132.94939598 232.0477969 130 227 C123.25298806 215.45270484 116.56660682 203.87097973 109.89111328 192.28222656 C106.76319854 186.85340062 103.63146269 181.42677993 100.5 176 C96.73636081 169.47766725 92.97355378 162.95486238 89.21484375 156.4296875 C83.16944841 145.93767906 77.10889781 135.45518324 71 125 C64.25298806 113.45270484 57.56660682 101.87097973 50.89111328 90.28222656 C47.76319854 84.85340062 44.63146269 79.42677993 41.5 74 C37.73636081 67.47766725 33.97355378 60.95486238 30.21484375 54.4296875 C23.39778476 42.59874052 16.55886664 30.78147506 9.65405273 19.00146484 C7.11420152 14.66101541 4.5855532 10.31410145 2.1015625 5.94140625 C1.69502441 5.22799072 1.28848633 4.5145752 0.86962891 3.77954102 C0 2 0 2 0 0 Z " fill="#FFFFFF" transform="translate(1890,150)"/>
<path d="M0 0 C-3.14692301 6.61321198 -6.82519457 12.75846904 -10.75 18.9375 C-11.62398437 20.34418945 -11.62398437 20.34418945 -12.515625 21.77929688 C-22.87604665 38.12649727 -35.971677 49.20276637 -55.1328125 53.7421875 C-65.64719828 55.70523139 -74.90757775 55.09338902 -85.31689453 52.97973633 C-91.98148283 51.71444744 -99.3030028 51.24866484 -105.25 55.0625 C-113.47580193 60.81892601 -114.55281804 68.21127217 -117 78 C-117.33 89.55 -117.66 101.1 -118 113 C-87.97 113 -57.94 113 -27 113 C-27 143.48263354 -30.52357619 164.8814256 -51.47265625 186.55859375 C-67.86071846 201.9597362 -88.87501129 210.06737996 -111.24609375 210.015625 C-112.50993896 210.01336914 -113.77378418 210.01111328 -115.07592773 210.00878906 C-116.52334351 210.00443848 -116.52334351 210.00443848 -118 210 C-117.99631283 211.16030228 -117.99262566 212.32060455 -117.98882675 213.5160675 C-117.90201934 241.11751753 -117.83615016 268.71895379 -117.79573868 296.32051235 C-117.79073642 299.72474285 -117.78555907 303.12897306 -117.78027344 306.53320312 C-117.7792242 307.21086633 -117.77817495 307.88852953 -117.77709392 308.58672798 C-117.75973319 319.53025976 -117.72821968 330.47370669 -117.69138882 341.41718829 C-117.65385829 352.66314106 -117.63203769 363.90905177 -117.62364602 375.1550703 C-117.61844761 381.46468095 -117.6062955 387.77409974 -117.57707977 394.08364868 C-117.54975845 400.03275264 -117.54158865 405.98158724 -117.54756927 411.93074799 C-117.54647648 414.10421975 -117.53862305 416.27770131 -117.5231781 418.45111847 C-117.37790666 439.96441596 -120.19940746 458.62604147 -135.765625 474.79296875 C-136.50296875 475.52128906 -137.2403125 476.24960937 -138 477 C-138.61359375 477.63550781 -139.2271875 478.27101563 -139.859375 478.92578125 C-161.65814125 499.93271198 -194.73285538 495 -222 495 C-222 400.95 -222 306.9 -222 210 C-242.13 210 -262.26 210 -283 210 C-283.0928125 200.8425 -283.0928125 200.8425 -283.1875 191.5 C-283.21481201 189.60958984 -283.24212402 187.71917969 -283.27026367 185.77148438 C-283.38397574 172.43366771 -282.91805468 158.61377604 -276.375 146.625 C-276.02800049 145.96564453 -275.68100098 145.30628906 -275.32348633 144.62695312 C-267.99442676 131.25555295 -255.51480714 120.80791604 -241 116 C-234.83685885 114.46713552 -228.36075653 113 -222 113 C-222.01571045 111.99960693 -222.0314209 110.99921387 -222.04760742 109.96850586 C-222.66166149 66.99931081 -219.41355868 22.65430966 -188 -10 C-181.64071351 -16.41807804 -174.83201833 -21.51065248 -167 -26 C-166.08734375 -26.52464844 -165.1746875 -27.04929687 -164.234375 -27.58984375 C-111.55525388 -55.87248664 -44.04896281 -34.69778635 0 0 Z " fill="#FFFFFF" transform="translate(1886,40)"/>
<path d="M0 0 C3.78738662 3.33442828 7.16467971 6.50043586 10.1484375 10.57421875 C0.79178399 25.86811421 -8.64813831 41.0981411 -18.33105469 56.18847656 C-19.75279994 58.41925605 -21.15400757 60.6612666 -22.546875 62.91015625 C-22.95236572 63.55887695 -23.35785645 64.20759766 -23.77563477 64.87597656 C-24.81806166 66.54546917 -25.85278596 68.21976488 -26.88671875 69.89453125 C-30.34253585 74.60763369 -34.1273449 77.33958358 -39.8515625 78.57421875 C-46.58052363 78.69558278 -50.46774561 76.21472858 -55.71875 72.1171875 C-66.72730672 63.65730442 -78.36181285 59.31272123 -92.45703125 61.0078125 C-107.70098546 63.95021151 -118.96760217 71.39560411 -128.1953125 83.953125 C-137.16622248 98.15001319 -141.9652436 114.824155 -141.98286438 131.61706543 C-141.98498009 132.29033261 -141.98709581 132.96359979 -141.98927563 133.657269 C-141.99522708 135.8945763 -141.99427896 138.13182642 -141.9934082 140.36914062 C-141.99644306 141.98128352 -141.99996542 143.59342555 -142.00393677 145.20556641 C-142.01180319 148.66983636 -142.01696225 152.13409613 -142.02022743 155.59837341 C-142.02616353 161.08909209 -142.04272996 166.57974683 -142.06156921 172.07043457 C-142.06790616 173.95473476 -142.07423179 175.839035 -142.08054638 177.72333527 C-142.08371219 178.66686135 -142.086878 179.61038744 -142.09013975 180.58250523 C-142.13210715 193.3564244 -142.1651645 206.13031335 -142.17749023 218.90429688 C-142.18590076 227.53231522 -142.20850157 236.1601744 -142.2468459 244.78811312 C-142.2665061 249.34537335 -142.27904476 253.90239623 -142.27401161 258.45970154 C-142.26932619 262.75431983 -142.28338025 267.04848957 -142.31102371 271.34301758 C-142.3178706 272.90733874 -142.31813335 274.47170694 -142.31082344 276.036026 C-142.23010794 295.27218781 -147.04818528 313.28128267 -160.66455078 327.51489258 C-173.27419318 340.16964613 -187.22222083 346.37055104 -204.8515625 348.57421875 C-218.0515625 348.57421875 -231.2515625 348.57421875 -244.8515625 348.57421875 C-244.8515625 224.49421875 -244.8515625 100.41421875 -244.8515625 -27.42578125 C-161.0758409 -27.42578125 -161.0758409 -27.42578125 -150.828125 -17.703125 C-146.01710405 -12.15999216 -143.53944447 -5.48419678 -141.8515625 1.57421875 C-141.50867187 1.12433594 -141.16578125 0.67445313 -140.8125 0.2109375 C-127.42458517 -16.24366719 -108.52644401 -25.94218623 -87.7265625 -29.17578125 C-54.73586259 -31.3042135 -25.10687087 -21.35803673 0 0 Z " fill="#FFFFFF" transform="translate(2618.8515625,179.42578125)"/>
<path d="M0 0 C14.38789021 -0.09407209 28.7757317 -0.16401618 43.16386795 -0.20724869 C49.84682649 -0.22774197 56.52955331 -0.25611934 63.21240234 -0.30175781 C69.67691815 -0.34562261 76.14123507 -0.36922196 82.60588837 -0.37950897 C85.05671056 -0.38682807 87.50752344 -0.40111743 89.95825958 -0.42292023 C120.46918484 -0.6832509 146.52303759 4.44180802 169.21484375 26.25 C187.38787326 44.19363643 194.32200745 66.45945056 202.75815582 89.94574165 C203.97381132 93.33007276 205.19565413 96.71185946 206.43286133 100.08837891 C207.64663108 103.4011087 208.84503359 106.71901976 210.03268623 110.04119873 C210.70011134 111.89654599 211.38260098 113.74645209 212.06541443 115.59619141 C214.44829217 122.3221491 216.12323159 127.16954384 213.12236023 133.99667358 C212.0014765 136.28444354 210.79405336 138.50474607 209.5546875 140.73046875 C208.6378456 142.42304196 207.72218892 144.11625763 206.80761719 145.81005859 C206.33932495 146.67129333 205.87103271 147.53252808 205.3885498 148.41986084 C203.21860396 152.45195406 201.143264 156.5307058 199.0703125 160.61328125 C198.25295914 162.21681348 197.43541236 163.82024714 196.61767578 165.42358398 C196.21002991 166.22351776 195.80238403 167.02345154 195.38238525 167.84762573 C189.39074791 179.59313704 183.39628668 191.33818564 177.125 202.9375 C176.68043457 203.76870361 176.23586914 204.59990723 175.77783203 205.45629883 C173.2751808 210.03005992 170.50308567 214.20049426 167.30322266 218.31835938 C166.23568251 219.69588214 165.23284956 221.12332744 164.25 222.5625 C157.19968817 230.20033782 146.54123751 236.22874615 136.03979492 237.17700195 C115.46113108 237.78936053 96.82488529 233.13377683 81.125 219.125 C79.73070464 217.76957001 78.35237079 216.39726277 77 215 C76.49915894 214.54732758 75.99831787 214.09465515 75.4822998 213.62826538 C73.80972843 211.79099194 73.19348017 210.34792085 72.40039062 208.00244141 C72.12080002 207.19051331 71.84120941 206.37858521 71.55314636 205.54205322 C71.25717056 204.65419128 70.96119476 203.76632935 70.65625 202.8515625 C70.3353389 201.91374939 70.0144278 200.97593628 69.68379211 200.00970459 C68.98462967 197.96448807 68.28930388 195.91795696 67.59732056 193.87030029 C65.70248379 188.26636416 63.777573 182.67275499 61.85546875 177.078125 C61.25529182 175.3280867 61.25529182 175.3280867 60.64299011 173.54269409 C56.48459196 161.44389941 52.15551044 149.4084711 47.8125 137.375 C39.97471245 115.62865263 32.3184607 93.82259832 24.72144413 71.99135303 C23.57909225 68.70891423 22.43623794 65.42665066 21.29296875 62.14453125 C21.06979162 61.50379606 20.84661449 60.86306087 20.61667442 60.20290947 C17.46137249 51.14808127 14.27280489 42.10553205 11.05078125 33.07421875 C10.6691835 32.00446808 10.28758575 30.93471741 9.89442444 29.83255005 C8.12496346 24.87661573 6.35035399 19.92258319 4.56958008 14.97070312 C3.95521995 13.25521583 3.34087945 11.53972151 2.7265625 9.82421875 C2.44649857 9.05043381 2.16643463 8.27664886 1.87788391 7.47941589 C0 2.22592861 0 2.22592861 0 0 Z " fill="#165496" transform="translate(0,134)"/>
<path d="M0 0 C11.61931058 11.61931058 16.98221173 24.63246324 17.08464891 40.92157292 C17.08086958 41.90621423 17.07709026 42.89085555 17.07319641 43.90533447 C17.07893473 45.51429537 17.07893473 45.51429537 17.08478898 47.15576053 C17.09505391 50.7266125 17.09113918 54.29730172 17.0871582 57.86816406 C17.09150831 60.43802539 17.09669246 63.00788542 17.10264587 65.57774353 C17.11535714 71.8202041 17.11719098 78.06262157 17.11484561 84.3050929 C17.113058 89.38340043 17.11482158 94.46169494 17.11907005 99.54000092 C17.11966524 100.2645239 17.12026043 100.98904689 17.12087366 101.73552512 C17.12208549 103.20772054 17.12329963 104.67991596 17.12451603 106.15211138 C17.13537817 119.94099491 17.13323559 133.72985394 17.12713119 147.51873884 C17.1219653 160.10870289 17.13321116 172.6985895 17.15222941 185.28853825 C17.17164418 198.24113188 17.17985731 211.19368895 17.17610615 224.14629722 C17.17419935 231.40802545 17.17663045 238.66968781 17.19082069 245.93140411 C17.20403765 252.76377068 17.20142519 259.59598037 17.18840981 266.42834663 C17.18605117 268.92838914 17.18875297 271.42844262 17.19703293 273.92847252 C17.26632709 296.48698352 15.59964885 316.82447928 -1.1875 333.8125 C-13.98776847 345.14209933 -27.78029434 350.17716874 -44.6875 350.0078125 C-45.76378662 350.0049826 -46.84007324 350.00215271 -47.94897461 349.99923706 C-51.36193299 349.98810731 -54.7746219 349.96301595 -58.1875 349.9375 C-60.51171494 349.92746089 -62.83593402 349.91833667 -65.16015625 349.91015625 C-70.83602831 349.8881916 -76.51174489 349.85478625 -82.1875 349.8125 C-82.25620376 309.50545375 -82.3090479 269.19841514 -82.34069599 228.891322 C-82.344448 224.13002186 -82.34833097 219.36872184 -82.35229492 214.60742188 C-82.35308185 213.6595541 -82.35386878 212.71168633 -82.35467956 211.73509529 C-82.36772465 196.39811684 -82.39137356 181.06117221 -82.41895839 165.72421381 C-82.44703754 149.98082521 -82.46368157 134.23745429 -82.46976548 118.49404168 C-82.47387672 108.78370191 -82.48685017 99.07345774 -82.5112494 89.36314741 C-82.52713757 82.69959535 -82.53189339 76.03609254 -82.52800413 69.37252292 C-82.52608738 65.53106531 -82.52897422 61.68977448 -82.54511642 57.84834671 C-82.56252524 53.6748112 -82.5564373 49.50162774 -82.54826355 45.32806396 C-82.56137134 43.52451277 -82.56137134 43.52451277 -82.57474393 41.68452621 C-82.49954663 27.43839909 -78.78142991 14.09815467 -68.9296875 3.4296875 C-48.61416735 -15.42821685 -22.1673934 -15.21291704 0 0 Z " fill="#FFFFFF" transform="translate(1549.1875,176.1875)"/>
<path d="M0 0 C0.78503906 0.350625 1.57007813 0.70125 2.37890625 1.0625 C16.19547765 7.98280011 24.21132965 19.65906052 29 34 C32.13220627 46.52882507 29.42457766 60.30416188 22.9140625 71.3046875 C14.92963979 82.54805826 3.62893944 91.40641727 -9.953125 94.56640625 C-26.40006799 96.90693275 -41.0665986 93.57947223 -54.625 83.875 C-63.76019613 76.41835581 -71.24080143 64.78663042 -73 53 C-74.05547931 38.32710735 -71.27159183 25.71900625 -62 14 C-46.56012583 -3.23520838 -21.3190962 -9.74587255 0 0 Z " fill="#FFFFFF" transform="translate(1536,49)"/>
</svg>
